<svg width="72" height="72" viewBox="0 0 72 72" fill="none" xmlns="http://www.w3.org/2000/svg">
<path d="M18.3124 48.438C18.2587 48.3989 18.1972 48.3792 18.1335 48.3808L12.4951 48.5198C12.4361 48.5213 12.3773 48.5439 12.325 48.5852C10.4158 50.0843 9.25454 52.8515 9.29519 55.8091C9.33382 58.6146 10.0838 60.9791 10.8094 63.2662C11.3052 64.8268 11.8176 66.4407 12.1045 68.1938C12.3101 69.4522 12.3155 70.092 12.3135 70.2409C12.3132 70.2639 12.3119 70.2867 12.3103 70.3098C12.2894 70.6145 12.4867 70.8452 12.719 70.7875L12.73 70.7848C14.8714 70.2538 17.0863 68.3 18.8073 65.4244C20.6152 62.4046 21.5856 58.8819 21.5392 55.5075C21.4985 52.55 20.2621 49.8415 18.3124 48.438ZM20.012 55.5452C20.021 56.2204 19.9793 56.9112 19.8895 57.6068C19.858 57.8501 19.803 58.0893 19.7518 58.3289C19.4533 59.7603 18.361 60.341 18.0965 58.2907C17.8314 56.2393 16.5844 56.722 16.3259 58.4931C16.0018 60.7158 14.9895 60.1871 14.8004 59.321C14.611 58.4554 14.7664 56.8693 13.8791 56.8125C13.3448 56.7776 13.2025 57.7331 12.906 59.1305C12.736 59.9306 11.752 60.6895 11.1196 58.4974C10.947 57.6213 10.8356 56.7229 10.8224 55.7717C10.8022 54.3348 11.1723 52.9336 11.8308 51.824C12.394 50.8749 13.3264 50.545 14.2107 50.5232L16.5989 50.4642C17.41 50.4441 18.2246 50.6842 18.751 51.4332C19.5268 52.5372 19.9907 54.0098 20.012 55.5452Z" fill="black"/>
<path d="M10.8734 42.036C10.8457 43.1424 11.1585 44.215 11.7382 45.0047C12.3189 45.7932 13.1156 46.2285 13.9427 46.2082L16.6298 46.1418C17.4568 46.1215 18.2417 45.647 18.8002 44.8305C19.358 44.0129 19.6407 42.9247 19.5833 41.821L19.576 41.6828C19.4285 38.899 17.7081 36.858 15.5538 36.9111L14.8405 36.9287C12.7385 36.9805 10.943 39.2921 10.8734 42.036Z" fill="black"/>
<path d="M14.6831 1.56451L14.6629 1.56552C13.1121 1.60385 11.8558 3.26057 11.8031 5.33476L11.1698 30.3333C11.1005 33.0675 12.7111 35.2006 14.8057 35.1489C17.1463 35.0911 19.0818 32.3551 18.9218 29.3305L17.6443 5.1902C17.5351 3.11948 16.2333 1.52654 14.6831 1.56451Z" fill="black"/>
<path d="M72 52.7334V12.0948C72 10.2229 70.4244 8.70825 68.4772 8.70825H36.4885C33.7271 8.70825 31.4885 10.9468 31.4885 13.7083V51.8868C31.4885 53.2895 32.6256 54.4267 34.0284 54.4267H65.0907C66.961 54.4267 68.4772 55.9429 68.4772 57.8133C68.4772 59.6836 66.961 61.1998 65.0907 61.1998H27.9657C26.0203 61.1998 24.443 59.6835 24.443 57.8133C24.443 55.943 26.0203 54.4267 27.9657 54.4267C28.9385 54.4267 29.7271 53.6381 29.7271 52.6653V51.8868V12.231C29.7271 10.2854 28.1499 8.70825 26.2044 8.70825C24.2572 8.70825 22.6816 10.2229 22.6816 12.0948V57.8133C22.6816 60.6182 25.048 62.8931 27.9657 62.8931H71.1193C71.6063 62.8931 72 62.5146 72 62.0464C72 61.5783 71.6063 61.1998 71.1193 61.1998C70.6329 61.1998 70.2386 60.8055 70.2386 60.3191V57.1401C70.2386 55.6416 72 54.232 72 52.7334ZM39.4146 20.5612H49.9829C50.4699 20.5612 50.8635 20.9396 50.8635 21.4078C50.8635 21.876 50.4699 22.2545 49.9829 22.2545H39.4146C38.9276 22.2545 38.534 21.876 38.534 21.4078C38.534 20.9396 38.9276 20.5612 39.4146 20.5612ZM56.1476 32.4141H39.4146C38.9276 32.4141 38.534 32.0357 38.534 31.5675C38.534 31.0993 38.9276 30.7208 39.4146 30.7208H56.1476C56.6347 30.7208 57.0283 31.0993 57.0283 31.5675C57.0283 32.0357 56.6347 32.4141 56.1476 32.4141ZM62.3124 27.3343H39.4146C38.9276 27.3343 38.534 26.9558 38.534 26.4876C38.534 26.0195 38.9276 25.641 39.4146 25.641H62.3124C62.7995 25.641 63.1931 26.0195 63.1931 26.4876C63.1931 26.9558 62.7995 27.3343 62.3124 27.3343Z" fill="#231F20"/>
</svg>
