<svg width="72" height="57" viewBox="0 0 72 57" fill="none" xmlns="http://www.w3.org/2000/svg">
<path d="M7.11328 0H19.2187H36.4629H53.3379H64.8867C66.8437 0 68.625 0.802734 69.9141 2.08594C71.2031 3.375 72 5.15625 72 7.11328V11.291V44.8359V48.9902C72 50.9473 71.1973 52.7285 69.9141 54.0176C68.625 55.3066 66.8437 56.1035 64.8867 56.1035H53.9369C53.7372 56.1035 53.5376 56.127 53.3379 56.127C53.1382 56.127 52.9386 56.1035 52.7389 56.1035H37.0619C36.8622 56.1035 36.6626 56.127 36.4629 56.127C36.2632 56.127 36.0636 56.1035 35.8639 56.1035H19.8178C19.6181 56.1035 19.4184 56.127 19.2187 56.127C19.019 56.127 18.8195 56.1035 18.6198 56.1035H7.11328C5.15625 56.1035 3.375 55.3008 2.08594 54.0176C0.796875 52.7344 0 50.9473 0 48.9902V44.8359V11.291V7.11328C0 5.15625 0.802734 3.375 2.08594 2.08594C3.375 0.802734 5.15625 0 7.11328 0ZM32.3379 18.3047L44.3672 26.6953C44.5547 26.8125 44.7246 26.9766 44.8594 27.1699C45.3984 27.9492 45.1992 29.0098 44.4258 29.5488L32.4434 37.834C32.1504 38.0742 31.7695 38.2207 31.3594 38.2207C30.4102 38.2207 29.6426 37.4531 29.6426 36.5039V19.708C29.6426 19.7064 29.6439 19.7051 29.6455 19.7051C29.6471 19.7051 29.6484 19.7038 29.6484 19.7022C29.649 19.3633 29.7486 19.0245 29.9531 18.7266C30.498 17.9531 31.5644 17.7656 32.3379 18.3047ZM58.1103 46.5527C56.4195 46.5527 55.0488 47.9234 55.0488 49.6143C55.0488 51.3051 56.4195 52.6758 58.1103 52.6758H64.8809C65.8945 52.6758 66.8144 52.2598 67.4824 51.5918C68.1504 50.9238 68.5664 50.0039 68.5664 48.9902C68.5664 47.644 67.4751 46.5527 66.1289 46.5527H58.1103ZM48.5596 52.6758C50.2504 52.6758 51.6211 51.3051 51.6211 49.6143C51.6211 47.9234 50.2504 46.5527 48.5596 46.5527H41.2412C39.5504 46.5527 38.1797 47.9234 38.1797 49.6143C38.1797 51.3051 39.5504 52.6758 41.2412 52.6758H48.5596ZM31.6904 52.6758C33.3813 52.6758 34.7519 51.3051 34.7519 49.6143C34.7519 47.9234 33.3813 46.5527 31.6904 46.5527H23.9971C22.3062 46.5527 20.9355 47.9234 20.9355 49.6143C20.9355 51.3051 22.3062 52.6758 23.9971 52.6758H31.6904ZM14.4404 52.6758C16.1313 52.6758 17.502 51.3051 17.502 49.6143C17.502 47.9234 16.1313 46.5527 14.4404 46.5527H5.86524C4.51904 46.5527 3.42773 47.644 3.42773 48.9902C3.42773 50.0039 3.84375 50.9238 4.51172 51.5918C5.17969 52.2598 6.09961 52.6758 7.11328 52.6758H14.4404ZM3.42773 38.125C3.42773 40.8864 5.66631 43.125 8.42773 43.125H19.2187H36.4629H53.3379H63.5723C66.3337 43.125 68.5723 40.8864 68.5723 38.125V18.0078C68.5723 15.2464 66.3337 13.0078 63.5723 13.0078H53.3379H36.4629H19.2187H8.42773C5.66631 13.0078 3.42773 15.2464 3.42773 18.0078V38.125ZM51.6211 9.58008V8.42773C51.6211 5.66631 49.3825 3.42773 46.6211 3.42773H41.2529C39.5556 3.42773 38.1797 4.80367 38.1797 6.50098C38.1797 8.19828 39.5556 9.57422 41.2529 9.57422H51.6152C51.6185 9.57422 51.6211 9.57684 51.6211 9.58008ZM58.1221 3.42773C56.4248 3.42773 55.0488 4.80367 55.0488 6.50098C55.0488 8.19828 56.4248 9.57422 58.1221 9.57422H66.1055C67.4646 9.57422 68.5664 8.47242 68.5664 7.11328C68.5664 6.09961 68.1504 5.17969 67.4824 4.51172C66.8144 3.84375 65.8945 3.42773 64.8809 3.42773H58.1221ZM34.7519 9.58008V8.42773C34.7519 5.66631 32.5134 3.42773 29.752 3.42773H24.0088C22.3115 3.42773 20.9355 4.80367 20.9355 6.50098C20.9355 8.19828 22.3115 9.57422 24.0088 9.57422H34.7461C34.7493 9.57422 34.7519 9.57684 34.7519 9.58008ZM17.502 9.58008V8.42773C17.502 5.66631 15.2634 3.42773 12.502 3.42773H7.11328C6.09961 3.42773 5.17969 3.84375 4.51172 4.51172C3.84375 5.17969 3.42773 6.09961 3.42773 7.11328C3.42773 8.47242 4.52953 9.57422 5.88867 9.57422H17.4961C17.4993 9.57422 17.502 9.57684 17.502 9.58008Z" fill="black"/>
</svg>
