<svg width="73" height="72" viewBox="0 0 73 72" fill="none" xmlns="http://www.w3.org/2000/svg">
<path d="M8.17408 36.0456C8.25482 36.0456 8.32399 36.0886 8.34152 36.1674L10.5158 45.9426C11.0228 48.2217 9.69066 50.4659 8.25521 52.3073C7.42835 53.368 6.87609 54.6164 6.64744 55.9418C6.4188 57.2671 6.52084 58.6284 6.94451 59.9048C7.36818 61.1813 8.10037 62.3334 9.07613 63.259C10.0519 64.1846 11.241 64.855 12.538 65.2107C13.8351 65.5665 15.1998 65.5966 16.5113 65.2984C17.8227 65.0001 19.0402 64.3828 20.0559 63.5012C21.8194 61.9703 23.9896 60.5203 26.2931 60.9042L41.8168 63.4915C44.1564 63.8814 45.7652 65.9895 46.9808 68.0263C47.0237 68.098 47.0676 68.1692 47.1128 68.2397C47.8939 69.4614 48.9867 70.4526 50.2786 71.1111C51.5705 71.7695 53.0147 72.0715 54.4622 71.9857C55.9097 71.9 57.3081 71.4297 58.5133 70.6233C59.7184 69.8169 60.6866 68.7037 61.3181 67.3983C61.9495 66.093 62.2213 64.6428 62.1055 63.1974C61.9896 61.752 61.4903 60.3637 60.659 59.1756C60.6115 59.1078 60.5631 59.0407 60.5136 58.9745C59.0945 57.0723 57.7595 54.7791 58.2934 52.4667L63.5543 29.6802C63.5812 29.5638 63.6837 29.501 63.8031 29.501C65.2071 29.5047 66.5883 29.147 67.814 28.4623C69.0397 27.7777 70.0686 26.7891 70.8016 25.5917C71.5346 24.3943 71.9472 23.0284 71.9995 21.6255C72.0519 20.2225 71.7423 18.8297 71.1006 17.581C70.4589 16.3323 69.5066 15.2697 68.3353 14.4956C67.1641 13.7215 65.8134 13.2618 64.413 13.1608C63.0127 13.0598 61.61 13.3208 60.3398 13.9189C60.3085 13.9336 60.2773 13.9486 60.2462 13.9637C58.1085 15.0034 55.5995 15.8822 53.427 14.9173L45.8995 11.5739C43.8292 10.6544 42.8464 8.32355 42.2787 6.13057C41.9515 4.86663 41.3266 3.69937 40.4561 2.72632C39.5856 1.75327 38.4948 1.0027 37.275 0.537328C36.0552 0.0719601 34.7416 -0.094687 33.4442 0.051313C32.1468 0.197313 30.9032 0.651719 29.8173 1.37656C28.7314 2.1014 27.8347 3.07561 27.2023 4.21779C26.5698 5.35997 26.2199 6.63694 26.1818 7.94199C26.1157 10.2069 25.6771 12.6984 23.864 14.0574L16.7348 19.4013C14.8962 20.7795 12.3464 20.5024 10.1151 19.9533C8.83131 19.6374 7.49 19.6381 6.20648 19.9551C4.92297 20.2722 3.73565 20.8962 2.7466 21.7735C1.75754 22.6508 0.996339 23.7552 0.528428 24.9917C0.0605159 26.2283 -0.100107 27.5599 0.060367 28.8722C0.220841 30.1845 0.697611 31.4383 1.44969 32.5256C2.20177 33.6129 3.20666 34.5014 4.37798 35.1145C5.54929 35.7277 6.85199 36.0472 8.17408 36.0456ZM12.1524 38.2285C11.7756 36.5344 12.7179 34.863 13.945 33.6358C15.1722 32.4087 16.8436 31.4664 18.5377 31.8432L29.3222 34.242C29.401 34.2596 29.444 34.3287 29.444 34.4095C29.4439 34.6368 29.4534 34.8634 29.4722 35.0887C29.6703 37.4622 29.5936 40.1272 27.9094 41.8113L22.1198 47.601C20.4345 49.2863 17.7672 49.3619 15.3921 49.1631C15.1687 49.1444 14.9441 49.1349 14.7187 49.1348C14.6379 49.1348 14.5688 49.0918 14.5512 49.013L12.1524 38.2285ZM34.5962 23.3637C34.839 25.3031 33.5853 27.0722 32.1359 28.3835C30.6847 29.6964 28.8019 30.7739 26.8916 30.349L16.4766 28.0323C16.3978 28.0148 16.3548 27.9456 16.3548 27.8649C16.3445 25.7697 16.7563 23.4726 18.4324 22.2155L26.8437 15.9071C28.0695 14.9877 29.7554 15.1291 31.1662 15.727C32.5789 16.3257 33.8546 17.4406 34.0452 18.963L34.5962 23.3637ZM42.5332 32.7733V36.0456C42.5332 36.9135 42.1884 37.7458 41.5748 38.3595C40.9611 38.9732 40.1288 39.3179 39.2609 39.3179H35.9886C35.1207 39.3179 34.2884 38.9732 33.6747 38.3595C33.0611 37.7458 32.7163 36.9135 32.7163 36.0456V32.7733C32.7163 31.9055 33.0611 31.0731 33.6747 30.4595C34.2884 29.8458 35.1207 29.501 35.9886 29.501H39.2609C40.1288 29.501 40.9611 29.8458 41.5748 30.4595C42.1884 31.0731 42.5332 31.9055 42.5332 32.7733ZM46.3687 60.9314C46.369 60.9314 46.369 60.931 46.3687 60.931L24.3605 57.2634C23.492 57.1187 22.8687 56.3736 22.6781 55.514C22.6256 55.2774 22.5626 55.0433 22.4892 54.8126C22.0967 53.5774 22.1922 52.1523 23.1086 51.2358L30.5495 43.7949C32.0402 42.3043 34.3921 42.2313 36.4808 42.5166C38.5661 42.8014 40.8081 43.5113 41.8298 45.3513L47.9777 56.4231C48.3853 57.1572 48.2013 58.0652 47.6679 58.7138C47.1223 59.3773 46.6829 60.1252 46.3685 60.9311C46.3684 60.9313 46.3685 60.9314 46.3687 60.9314ZM16.3548 62.224H13.0825C12.2147 62.224 11.3823 61.8792 10.7687 61.2656C10.155 60.6519 9.81023 59.8196 9.81023 58.9517V55.6794C9.81023 54.8115 10.155 53.9792 10.7687 53.3655C11.3823 52.7519 12.2147 52.4071 13.0825 52.4071H16.3548C17.2227 52.4071 18.055 52.7519 18.6687 53.3655C19.2824 53.9792 19.6271 54.8115 19.6271 55.6794V58.9517C19.6271 59.8196 19.2824 60.6519 18.6687 61.2656C18.055 61.8792 17.2227 62.224 16.3548 62.224ZM58.8947 62.224V65.4963C58.8947 66.3642 58.5499 67.1965 57.9362 67.8102C57.3226 68.4238 56.4902 68.7686 55.6224 68.7686H52.3501C51.4822 68.7686 50.6499 68.4238 50.0362 67.8102C49.4225 67.1965 49.0778 66.3642 49.0778 65.4963V62.224C49.0778 61.3561 49.4225 60.5238 50.0362 59.9101C50.6499 59.2965 51.4822 58.9517 52.3501 58.9517H55.6224C56.4902 58.9517 57.3226 59.2965 57.9362 59.9101C58.5499 60.5238 58.8947 61.3561 58.8947 62.224ZM54.235 55.5002C54.2081 55.6166 54.1057 55.6794 53.9862 55.6794C52.5434 55.6998 51.0339 55.1802 50.3334 53.9187L44.9507 44.2249C43.7795 42.1157 44.4776 39.4926 45.3144 37.2298C45.3633 37.0976 45.4087 36.9638 45.4506 36.8287C45.4928 36.6923 45.5313 36.555 45.566 36.417C46.1538 34.079 47.0592 31.5227 49.2152 30.4441L55.6555 27.2221C56.6697 26.7148 57.8805 27.0262 58.7691 27.7307C59.6513 28.4301 60.2285 29.5271 59.9754 30.624L54.235 55.5002ZM62.167 16.4118H65.4393C66.3071 16.4118 67.1395 16.7566 67.7531 17.3703C68.3668 17.984 68.7116 18.8163 68.7116 19.6841V22.9564C68.7116 23.8243 68.3668 24.6566 67.7531 25.2703C67.1395 25.884 66.3071 26.2287 65.4393 26.2287H62.167C61.2991 26.2287 60.4668 25.884 59.8531 25.2703C59.2394 24.6566 58.8947 23.8243 58.8947 22.9564V19.6841C58.8947 18.8163 59.2394 17.984 59.8531 17.3703C60.4668 16.7566 61.2991 16.4118 62.167 16.4118ZM54.0479 18.7747C55.0771 19.232 55.5948 20.3633 55.6255 21.4892C55.6564 22.6256 55.1925 23.795 54.1758 24.3036L47.0396 27.8736C45.2872 28.7503 43.1962 28.1549 41.4684 27.2307C39.7407 26.3066 38.0847 24.8977 37.8413 22.9535L37.2807 18.4756C37.0963 17.0027 38.0234 15.6517 39.2171 14.7694C40.4051 13.8913 41.9591 13.4024 43.309 14.0024L54.0479 18.7747ZM29.444 9.86725V6.59496C29.444 5.72709 29.7888 4.89477 30.4024 4.28109C31.0161 3.66742 31.8484 3.32266 32.7163 3.32266H35.9886C36.8565 3.32266 37.6888 3.66742 38.3025 4.28109C38.9161 4.89477 39.2609 5.72709 39.2609 6.59496V9.86725C39.2609 10.7351 38.9161 11.5674 38.3025 12.1811C37.6888 12.7948 36.8565 13.1395 35.9886 13.1395H32.7163C31.8484 13.1395 31.0161 12.7948 30.4024 12.1811C29.7888 11.5674 29.444 10.7351 29.444 9.86725ZM3.26563 26.2287C3.26563 25.3609 3.61039 24.5285 4.22407 23.9149C4.83774 23.3012 5.67006 22.9564 6.53793 22.9564H9.81023C10.6781 22.9564 11.5104 23.3012 12.1241 23.9149C12.7378 24.5285 13.0825 25.3609 13.0825 26.2287V29.501C13.0825 30.3689 12.7378 31.2012 12.1241 31.8149C11.5104 32.4286 10.6781 32.7733 9.81023 32.7733H6.53793C5.67006 32.7733 4.83774 32.4286 4.22407 31.8149C3.61039 31.2012 3.26563 30.3689 3.26563 29.501V26.2287Z" fill="black"/>
</svg>
