<svg width="72" height="72" viewBox="0 0 72 72" fill="none" xmlns="http://www.w3.org/2000/svg">
<path fill-rule="evenodd" clip-rule="evenodd" d="M22.1813 21.2766C21.5935 16.9717 17.3194 13.6554 14.4379 16.9073C9.93431 21.9895 7.2 28.6754 7.2 36C7.2 49.3754 16.3177 60.6209 28.6767 63.8606C29.0471 63.9577 29.4133 63.6981 29.448 63.3168C29.6748 60.7939 29.704 58.1044 29.2626 56.2925C28.8572 54.63 27.7786 53.2051 26.2096 51.2899C26.1706 51.242 26.131 51.1938 26.091 51.1452C25.4055 50.3089 24.5792 49.3013 23.9241 48.2551C23.2147 47.1222 22.5148 45.6577 22.4061 43.9027C22.2458 41.3129 23.3933 39.3523 24.6563 37.9836C25.7376 36.8114 27.1188 35.8499 28.1123 35.1583C28.1869 35.1065 28.2593 35.0561 28.3292 35.0075C29.5265 34.1708 30.1637 33.6798 30.5154 33.2474C30.5652 33.1856 30.5799 33.1032 30.5578 33.0269C30.2974 32.1295 29.7667 31.6291 28.2789 30.569C28.1972 30.5107 28.112 30.4506 28.0238 30.3883C26.5001 29.3116 24.0689 27.5939 22.885 24.2375C22.5459 23.2761 22.3186 22.2824 22.1813 21.2766ZM32.7244 5.88881L32.7193 5.89896L32.683 5.97193C32.6488 6.04087 32.5958 6.14959 32.5274 6.29438C32.3971 6.56881 32.2121 6.97115 31.9946 7.4763C33.3036 7.29414 34.6406 7.2 36 7.2C43.1648 7.2 49.7188 9.81642 54.7582 14.146C55.8934 15.1212 55.6564 16.866 54.5202 17.8401C53.6105 18.62 52.5528 19.7059 51.9026 21.0856C50.6426 23.7591 51.1888 26.5276 51.4552 27.8803C51.489 28.0516 51.5185 28.2002 51.539 28.3231C51.6661 29.0808 51.6499 29.3389 51.6308 29.4372C51.6303 29.4413 51.6286 29.4451 51.6262 29.4484C51.621 29.4559 51.6121 29.4679 51.5988 29.484C51.5256 29.5705 51.4017 29.5881 51.2976 29.5433C51.2617 29.5279 51.223 29.511 51.1816 29.4926C51.1078 29.4599 51.0224 29.4199 50.926 29.3746C49.7862 28.84 47.0981 27.5788 43.9045 29.0837C42.188 29.8926 41.1563 31.3402 40.5479 32.4832C39.9146 33.6726 39.5122 34.9618 39.2486 36.0436C38.9794 37.1484 38.8213 38.1809 38.7299 38.9261C38.6838 39.303 38.6532 39.6166 38.6341 39.8423C38.6244 39.955 38.6176 40.0468 38.6129 40.1137L38.6075 40.1954L38.606 40.2221L38.6053 40.2318L38.605 40.2354C38.605 40.2354 38.605 40.2386 42.1992 40.4402L38.605 40.2354C38.5124 41.8867 39.5564 43.3915 41.1365 43.8797L41.1937 43.8984C41.252 43.9178 41.3478 43.9506 41.4749 43.9963C41.7298 44.0881 42.1067 44.2318 42.5596 44.4269C43.4801 44.824 44.6386 45.4032 45.7088 46.1516C48.0226 47.7695 48.8218 49.2941 48.4229 50.9234C48.1871 51.8854 47.3065 53.3048 45.5342 55.0642C43.8386 56.7479 41.6628 58.4161 39.4405 59.9195C38.3213 60.6764 36.8388 59.8164 36.7743 58.4669C36.7109 57.1409 36.5558 55.8106 36.2574 54.5875C35.4262 51.1762 33.3112 48.5957 31.8708 46.8385C31.8398 46.8011 31.8096 46.764 31.7794 46.7273C30.9816 45.7531 30.4261 45.072 30.0265 44.4341C29.6428 43.8214 29.5974 43.5406 29.5924 43.4578L29.5916 43.4538C29.5859 43.4275 29.5556 43.2911 29.9484 42.8656C30.4672 42.3032 31.2343 41.7607 32.4526 40.9097L32.526 40.8586C33.5466 40.1458 35.0262 39.1126 36.1019 37.7892C37.3669 36.2333 38.2298 34.0898 37.5973 31.4892C36.6786 27.7129 34.1154 25.8868 32.4835 24.7242L32.4569 24.7052C30.7433 23.4842 30.0661 22.9515 29.6752 21.8425C28.7803 19.306 29.2702 15.5745 30.3714 11.9134C30.8905 10.1868 31.4881 8.65944 31.9576 7.56274C31.9698 7.53361 31.9824 7.50478 31.9946 7.4763M50.9371 60.6286C50.6416 60.8083 50.3619 60.4173 50.6074 60.1736C52.6691 58.1263 54.7013 55.5538 55.4159 52.637C56.9174 46.5091 52.8566 42.3641 49.8352 40.2512C48.6903 39.4507 47.5298 38.8122 46.5227 38.3242C46.3067 38.2195 46.1874 37.9815 46.2438 37.7482C46.4328 36.9734 46.661 36.3218 46.9037 35.8664C46.9965 35.6916 47.2029 35.6243 47.3865 35.6983C47.5796 35.7761 47.8581 35.8946 48.2584 36.0724C48.897 36.356 50.144 36.9083 51.655 36.8993C53.3484 36.8888 54.8615 36.2063 56.1838 35.0557C57.5755 33.844 58.392 32.3964 58.6998 30.8052C58.9795 29.3605 58.788 28.0176 58.64 27.133C58.6123 26.9688 58.5864 26.8151 58.5623 26.671C58.2731 24.9563 58.2153 24.6123 58.3948 24.2011C58.4083 24.1701 58.4234 24.1398 58.4415 24.1112C58.4456 24.1047 58.4504 24.0973 58.4557 24.0893C58.487 24.0425 58.5346 23.9783 58.603 23.8976C58.743 23.7327 58.9414 23.5334 59.2063 23.3065C60.1915 22.4619 61.6785 22.8816 62.2169 24.0622C63.8757 27.6992 64.8 31.7417 64.8 36C64.8 46.4368 59.2482 55.577 50.9371 60.6286ZM65.3911 15.2062C69.5534 21.079 72 28.2538 72 36C72 55.8821 55.8821 72 36 72C16.1177 72 0 55.8821 0 36C0 16.1177 16.1177 0 36 0C48.092 0 58.7916 5.96167 65.3198 15.1061C65.344 15.139 65.3677 15.1723 65.3911 15.2062ZM46.9739 35.5968C46.9937 35.5872 46.9896 35.5554 46.9682 35.5611C46.9623 35.5627 46.9607 35.5661 46.9613 35.5702C46.962 35.5741 46.9645 35.5788 46.9674 35.5831L46.9696 35.5864C46.9732 35.5914 46.976 35.5957 46.9739 35.5968Z" fill="black"/>
</svg>
