<svg width="72" height="72" viewBox="0 0 72 72" fill="none" xmlns="http://www.w3.org/2000/svg">
<path d="M35.6172 38.9916C38.4119 38.9916 40.6858 36.7181 40.6858 33.9235C40.6858 31.1288 38.4119 28.8553 35.6172 28.8553C32.8225 28.8553 30.5492 31.1288 30.5492 33.9235C30.5492 36.7181 32.8225 38.9916 35.6172 38.9916ZM35.6172 31.3173C37.0545 31.3173 38.2237 32.4863 38.2237 33.9235C38.2237 35.3606 37.0545 36.5298 35.6172 36.5298C34.1801 36.5298 33.011 35.3606 33.011 33.9235C33.011 32.4863 34.1801 31.3173 35.6172 31.3173Z" fill="black"/>
<path d="M55.7412 33.9725C60.0253 30.341 63.3445 26.6408 64.8631 23.3766C64.4812 23.454 64.0859 23.495 63.6814 23.495C63.1439 23.495 62.6233 23.422 62.1274 23.2876C61.2972 24.7328 60.0416 26.3678 58.3988 28.1085C57.0648 29.5217 55.5254 30.9585 53.8165 32.393C51.6938 30.7099 49.3618 29.0428 46.8724 27.4314C46.6975 24.7134 46.4146 22.0348 46.0259 19.4806C50.5284 17.9192 54.592 17.0287 57.7631 16.9634C57.8504 16.0708 58.1359 15.2362 58.5749 14.5028C58.4297 14.4995 58.2857 14.4951 58.1363 14.4951C54.7639 14.4951 50.4179 15.3996 45.6129 17.0315C43.8362 7.45748 40.4792 0.177361 35.6986 0.177361C30.9177 0.177361 27.5605 7.45744 25.7842 17.0315C20.9789 15.3996 16.6331 14.4951 13.2607 14.4951C13.2457 14.4951 13.2318 14.4958 13.2167 14.4958C13.6599 15.2341 13.9473 16.0757 14.0337 16.9753C17.1432 17.1036 21.0557 17.9841 25.3709 19.4806C24.9822 22.0348 24.6993 24.7135 24.5242 27.4318C22.035 29.0431 19.7032 30.7099 17.5805 32.393C15.8716 30.9586 14.3322 29.5216 12.9982 28.1084C11.3874 26.402 10.1485 24.7964 9.31812 23.3722C8.92904 23.4525 8.5264 23.4949 8.11396 23.4949C7.54812 23.4949 7.00112 23.4136 6.4824 23.2654C7.9766 26.5566 11.3228 30.2999 15.6559 33.9725C14.0076 35.3741 12.514 36.7782 11.2076 38.1626C6.3136 43.3479 4.59324 47.6295 6.23192 50.5446C7.32156 52.4828 9.68616 53.4656 13.2602 53.4656C16.6327 53.4656 20.9785 52.5614 25.784 50.9291C26.7658 56.2205 28.2307 60.8096 30.1518 63.8577C30.5131 63.0186 31.0626 62.2792 31.746 61.6914C31.0118 60.3394 30.3153 58.6412 29.6935 56.646C29.0746 54.6616 28.548 52.4584 28.119 50.0914C30.5733 49.1667 33.1203 48.0697 35.6986 46.8209C38.2767 48.0697 40.8235 49.1667 43.2778 50.0912C42.8487 52.4582 42.3221 54.6616 41.7034 56.646C41.067 58.6878 40.3525 60.42 39.599 61.7874C40.2729 62.3956 40.8063 63.1564 41.1466 64.0141C43.1164 60.9678 44.6141 56.311 45.613 50.9289C50.4182 52.5614 54.7643 53.4656 58.137 53.4656C61.7105 53.4656 64.0755 52.4827 65.1649 50.5444C66.8038 47.6295 65.0834 43.3479 60.1894 38.1626C58.8828 36.7782 57.3893 35.374 55.7412 33.9725ZM51.8548 33.9802C50.3446 35.1599 48.7274 36.331 47.0227 37.4798C47.0627 36.3123 47.0834 35.144 47.0834 33.9806C47.0834 32.8167 47.0627 31.648 47.0227 30.4806C48.7274 31.6292 50.3446 32.8005 51.8548 33.9802ZM26.7751 33.9806C26.7751 32.239 26.8187 30.52 26.9025 28.8344C28.3306 27.9355 29.808 27.0553 31.3258 26.202C32.7849 25.3817 34.2462 24.608 35.6986 23.8814C37.151 24.608 38.6122 25.3817 40.0711 26.202C41.5892 27.0552 43.0664 27.9355 44.4944 28.8342C44.5784 30.5197 44.6216 32.2389 44.6216 33.9806C44.6216 35.7218 44.5784 37.4408 44.4944 39.1261C43.0662 40.025 41.5889 40.9053 40.0708 41.7588C38.6118 42.5788 37.1508 43.3527 35.6986 44.0791C34.2463 43.3527 32.7849 42.5788 31.3262 41.7586C29.808 40.9051 28.3308 40.0248 26.9025 39.1259C26.8187 37.4407 26.7751 35.7217 26.7751 33.9806ZM44.2978 25.8197C43.31 25.2211 42.3027 24.6322 41.2773 24.0558C40.347 23.533 39.415 23.0285 38.484 22.5417C40.2498 21.7272 41.9894 20.9903 43.6817 20.3389C43.9388 22.0977 44.1448 23.9312 44.2978 25.8197ZM29.6935 11.3147C31.3872 5.88244 33.6318 2.6392 35.6986 2.6392C37.7651 2.6392 40.0098 5.88244 41.7034 11.3147C42.3221 13.2994 42.8487 15.5026 43.2777 17.8693C40.8235 18.7938 38.2765 19.8908 35.6986 21.1398C33.1203 19.8908 30.5735 18.7938 28.119 17.8693C28.5484 15.5025 29.0746 13.2994 29.6935 11.3147ZM27.715 20.3388C29.4073 20.9901 31.147 21.7272 32.9128 22.5418C31.9819 23.0286 31.05 23.533 30.1197 24.0559C29.0943 24.6322 28.0867 25.2211 27.0988 25.8198C27.2521 23.9312 27.458 22.0977 27.715 20.3388ZM24.3743 30.4808C24.3342 31.6482 24.3132 32.8167 24.3132 33.9806C24.3132 35.144 24.3342 36.3124 24.3742 37.4797C22.6694 36.331 21.0526 35.1597 19.5423 33.9804C21.0526 32.8007 22.6694 31.6294 24.3743 30.4808ZM13.2602 51.0038C10.7155 51.0038 8.9816 50.4121 8.37772 49.3382C7.36524 47.5368 9.09228 43.9907 12.998 39.8523C14.3346 38.4356 15.8782 36.9957 17.5917 35.5578C19.7435 37.2613 22.0837 38.9322 24.5238 40.5177C24.6986 43.2396 24.9816 45.9222 25.371 48.4802C20.6908 50.103 16.4822 51.0038 13.2602 51.0038ZM27.715 47.6216C27.4579 45.8616 27.2517 44.0267 27.0985 42.1366C28.0967 42.7435 29.1053 43.3343 30.1199 43.9045C31.05 44.4274 31.982 44.9318 32.9132 45.4186C31.1472 46.2332 29.4073 46.9704 27.715 47.6216ZM38.484 45.4186C39.415 44.9318 40.347 44.4274 41.277 43.9048C42.2914 43.3344 43.3 42.7437 44.2984 42.1368C44.1451 44.0267 43.9392 45.8616 43.6817 47.6214C41.9894 46.9704 40.2498 46.2332 38.484 45.4186ZM63.0192 49.3382C62.4153 50.4121 60.6814 51.0038 58.137 51.0038C54.9147 51.0038 50.7063 50.103 46.026 48.4802C46.4152 45.9222 46.6985 43.2397 46.8732 40.5176C49.3132 38.9323 51.6536 37.2615 53.8056 35.5578C55.5187 36.9956 57.0623 38.4356 58.3992 39.8523C62.3046 43.9908 64.0318 47.5368 63.0192 49.3382Z" fill="black"/>
<path d="M12.9474 17.19C12.9474 14.3841 10.6646 12.1015 7.85879 12.1015C5.05311 12.1015 2.77051 14.3841 2.77051 17.19C2.77051 19.9956 5.05311 22.2784 7.85879 22.2784C10.6646 22.2784 12.9474 19.9956 12.9474 17.19ZM5.27267 17.19C5.27267 15.764 6.43279 14.6037 7.85879 14.6037C9.28491 14.6037 10.4452 15.764 10.4452 17.19C10.4452 18.6159 9.28491 19.7762 7.85879 19.7762C6.43279 19.7762 5.27267 18.6159 5.27267 17.19Z" fill="black"/>
<path d="M64.1411 12.1015C61.3352 12.1015 59.0526 14.3841 59.0526 17.19C59.0526 19.9956 61.3352 22.2784 64.1411 22.2784C66.9469 22.2784 69.2295 19.9956 69.2295 17.19C69.2295 14.3841 66.9469 12.1015 64.1411 12.1015ZM64.1411 19.7762C62.7149 19.7762 61.5548 18.6159 61.5548 17.19C61.5548 15.764 62.7149 14.6037 64.1411 14.6037C65.5672 14.6037 66.7273 15.764 66.7273 17.19C66.7273 18.6159 65.5672 19.7762 64.1411 19.7762Z" fill="black"/>
<path d="M35.7193 61.6458C32.9137 61.6458 30.6311 63.9284 30.6311 66.7342C30.6311 69.5401 32.9137 71.8227 35.7193 71.8227C38.5253 71.8227 40.8081 69.5401 40.8081 66.7342C40.8081 63.9284 38.5254 61.6458 35.7193 61.6458ZM35.7193 69.3205C34.2934 69.3205 33.1333 68.1604 33.1333 66.7342C33.1333 65.3082 34.2934 64.148 35.7193 64.148C37.1457 64.148 38.306 65.3082 38.306 66.7342C38.306 68.1604 37.1457 69.3205 35.7193 69.3205Z" fill="black"/>
</svg>
