<svg width="72" height="73" viewBox="0 0 72 73" fill="none" xmlns="http://www.w3.org/2000/svg">
<path d="M5 72.0583C2.23857 72.0583 -0.046213 69.8014 0.454028 67.0857C1.4546 61.6538 4.07986 56.608 8.04015 52.6477C13.1882 47.4997 20.1704 44.6075 27.4508 44.6075C34.7312 44.6075 41.7134 47.4997 46.8614 52.6477C50.8217 56.608 53.447 61.6537 54.4476 67.0857C54.9478 69.8014 52.663 72.0583 49.9016 72.0583H5ZM27.4508 41.1762C16.0759 41.1762 6.8627 31.963 6.8627 20.5881C6.8627 9.21317 16.0759 0 27.4508 0C38.8257 0 48.0389 9.21317 48.0389 20.5881C48.0389 31.963 38.8257 41.1762 27.4508 41.1762ZM60.4982 62.7913C59.2166 58.2119 63.0781 53.6687 66.1164 57.327C68.4452 60.1311 70.139 63.3812 71.1088 66.8541C71.8786 69.6108 69.573 72.0583 66.7109 72.0583C63.9789 72.0583 61.8018 69.8324 61.4127 67.1283C61.2 65.6501 60.8931 64.2023 60.4982 62.7913ZM53.0021 40.4466C50.2534 41.2768 48.9499 37.9039 50.5097 35.493C51.273 34.3132 51.9463 33.0734 52.5222 31.7837C54.0951 28.2611 54.906 24.4459 54.9016 20.5881C54.9032 19.5455 54.8452 18.5066 54.7287 17.4765C54.249 13.2316 57.8458 9.30449 60.7225 12.4627C60.9248 12.6848 61.1217 12.9127 61.3129 13.1462C63.8244 16.2132 65.1964 20.0553 65.1956 24.0194C65.1966 26.4642 64.6749 28.8808 63.6656 31.1075C62.6564 33.3342 61.1828 35.3194 59.3437 36.93C57.5046 38.5407 55.3424 39.7397 53.0021 40.4466Z" fill="black"/>
</svg>
