<svg width="493" height="110" viewBox="0 0 493 110" fill="none" xmlns="http://www.w3.org/2000/svg">
<g filter="url(#filter0_d_5_39)">
<path d="M5.595 30.112C6.53366 28.32 7.47233 26.7413 8.411 25.376C9.34966 23.9253 10.331 22.5173 11.355 21.152C12.4643 19.7013 13.7017 18.08 15.067 16.288H18.523C18.267 17.9947 18.0537 20.2133 17.883 22.944C17.7123 25.5893 17.5843 29.1307 17.499 33.568C17.4137 38.0053 17.371 43.7227 17.371 50.72C17.371 57.632 17.371 66.208 17.371 76.448L28.379 78.368L25.947 83.104C25.0937 83.1893 23.8137 83.36 22.107 83.616C20.4003 83.872 18.651 84.0853 16.859 84.256C15.067 84.512 13.4883 84.7253 12.123 84.896C10.843 85.0667 10.075 85.152 9.819 85.152C9.563 85.152 9.09366 84.8533 8.411 84.256C7.72833 83.6587 7.04566 83.0187 6.363 82.336C5.76566 81.6533 5.467 81.184 5.467 80.928C5.63766 77.6 5.851 74.4 6.107 71.328C6.44833 68.1707 6.619 64.2453 6.619 59.552C6.619 55.968 6.491 52.4693 6.235 49.056C5.979 45.5573 5.76566 42.2293 5.595 39.072C5.42433 35.8293 5.42433 32.8427 5.595 30.112ZM25.051 46.496L49.627 45.728V52.512L25.051 51.744V46.496ZM31.067 16.8V71.072C31.067 71.584 30.8537 72.5227 30.427 73.888C30.0003 75.168 29.3177 76.6613 28.379 78.368H24.411V16.8H31.067ZM0.218997 14.112L1.115 4.64C5.80833 4.98133 10.843 5.45066 16.219 6.048C21.6803 6.56 26.971 7.15733 32.091 7.84C37.2963 8.43733 41.8617 9.03467 45.787 9.632C49.7123 10.2293 52.5283 10.784 54.235 11.296C54.4057 11.3813 54.7043 11.6373 55.131 12.064C55.643 12.4053 56.1123 12.832 56.539 13.344C57.051 13.7707 57.4777 14.24 57.819 14.752C58.1603 15.1787 58.331 15.4773 58.331 15.648V76.32L66.267 78.24V83.232C65.243 83.4027 63.9203 83.616 62.299 83.872C60.6777 84.0427 59.0137 84.2133 57.307 84.384C55.6003 84.64 54.107 84.8107 52.827 84.896C51.547 85.0667 50.779 85.152 50.523 85.152C50.267 85.152 49.7977 84.8107 49.115 84.128C48.4323 83.5307 47.7923 82.8907 47.195 82.208C46.683 81.5253 46.427 81.056 46.427 80.8V21.408L17.883 18.08L13.659 18.336L13.403 17.568L0.218997 14.112ZM111.035 85.152C110.182 85.152 108.816 85.1093 106.939 85.024C105.062 84.9387 102.928 84.8107 100.539 84.64C98.1497 84.4693 95.8457 84.256 93.627 84C91.4083 83.8293 89.531 83.6587 87.995 83.488L88.251 65.056L94.651 64.928L97.339 74.656C98.7043 75.0827 100.24 75.5093 101.947 75.936C103.654 76.3627 105.275 76.704 106.811 76.96C108.347 77.216 109.499 77.344 110.267 77.344C110.779 77.344 111.334 76.96 111.931 76.192C112.528 75.424 113.04 74.4853 113.467 73.376C113.979 72.1813 114.235 71.1147 114.235 70.176C114.235 68.5547 113.851 67.232 113.083 66.208C112.315 65.0987 111.035 63.9893 109.243 62.88C107.451 61.7707 105.019 60.4053 101.947 58.784C98.619 56.9067 95.931 55.2427 93.883 53.792C91.9203 52.256 90.4697 50.6347 89.531 48.928C88.6777 47.2213 88.251 45.2587 88.251 43.04C88.251 41.9307 88.2937 40.8213 88.379 39.712C88.4643 38.5173 88.635 37.536 88.891 36.768C89.5737 35.744 90.5123 34.592 91.707 33.312C92.987 31.9467 94.3097 30.7093 95.675 29.6C97.1257 28.4053 98.4483 27.424 99.643 26.656C100.923 25.888 101.904 25.504 102.587 25.504C103.611 25.504 105.019 25.5467 106.811 25.632C108.688 25.7173 110.694 25.8027 112.827 25.888C114.96 25.9733 117.008 26.1013 118.971 26.272C120.934 26.3573 122.555 26.4853 123.835 26.656L123.451 42.272H116.283L115.387 35.488C115.046 35.3173 114.235 35.1467 112.955 34.976C111.675 34.72 110.224 34.5067 108.603 34.336C107.067 34.08 105.616 33.8667 104.251 33.696C102.971 33.5253 102.118 33.44 101.691 33.44C101.179 33.44 100.71 33.6107 100.283 33.952C99.8563 34.2933 99.515 34.848 99.259 35.616C99.003 36.384 98.875 37.4507 98.875 38.816C98.875 40.4373 99.3443 41.8453 100.283 43.04C101.222 44.1493 102.374 45.1307 103.739 45.984C105.19 46.8373 106.64 47.7333 108.091 48.672C109.627 49.6107 111.419 50.6773 113.467 51.872C115.6 53.0667 117.648 54.3467 119.611 55.712C121.659 57.0773 123.323 58.6133 124.603 60.32C125.883 61.9413 126.523 63.7333 126.523 65.696C126.523 66.5493 126.48 67.5307 126.395 68.64C126.31 69.7493 126.054 70.944 125.627 72.224C125.03 73.3333 124.134 74.6133 122.939 76.064C121.744 77.5147 120.422 78.9653 118.971 80.416C117.52 81.7813 116.07 82.9333 114.619 83.872C113.254 84.7253 112.059 85.152 111.035 85.152ZM162.655 36.512V76.448L167.007 78.368V83.104C164.532 83.5307 162.484 83.9147 160.863 84.256C159.327 84.5973 158.132 84.8107 157.279 84.896C156.426 85.0667 155.786 85.152 155.359 85.152C155.103 85.152 154.634 84.8533 153.951 84.256C153.268 83.6587 152.628 83.0613 152.031 82.464C151.434 81.7813 151.135 81.312 151.135 81.056V9.88799L146.527 8.09599V3.35999C147.722 3.104 148.959 2.89066 150.239 2.71999C151.519 2.464 152.714 2.25066 153.823 2.07999C155.018 1.824 155.999 1.65333 156.767 1.56799C157.62 1.39733 158.175 1.312 158.431 1.312C158.772 1.312 159.242 1.61066 159.839 2.20799C160.522 2.80533 161.162 3.44533 161.759 4.128C162.356 4.72533 162.655 5.19466 162.655 5.536L162.015 36.512H162.655ZM187.487 85.152C187.316 85.152 186.847 84.8533 186.079 84.256C185.396 83.744 184.671 83.1893 183.903 82.592C183.22 81.9093 182.751 81.3973 182.495 81.056L167.519 59.68V55.456C169.738 54.688 171.956 53.8347 174.175 52.896C176.479 51.9573 178.399 50.72 179.935 49.184C181.471 47.5627 182.239 45.3867 182.239 42.656C182.239 40.5227 181.812 38.944 180.959 37.92C180.191 36.8107 179.21 36.0853 178.015 35.744C176.906 35.3173 175.839 35.104 174.815 35.104C174.474 35.104 173.578 35.5307 172.127 36.384C170.676 37.152 168.927 38.2187 166.879 39.584C164.916 40.864 162.826 42.2293 160.607 43.68V36.512H162.655C163.85 35.4027 165.172 34.2507 166.623 33.056C168.074 31.776 169.439 30.5813 170.719 29.472C171.999 28.2773 173.066 27.3387 173.919 26.656C174.858 25.888 175.412 25.504 175.583 25.504C181.898 25.504 186.506 26.8693 189.407 29.6C192.394 32.3307 193.887 36.0427 193.887 40.736C193.887 43.808 193.119 46.5387 191.583 48.928C190.132 51.3173 188.298 53.3227 186.079 54.944C183.86 56.5653 181.684 57.8453 179.551 58.784L192.863 76.32L197.983 78.368V83.104C196.959 83.36 195.892 83.616 194.783 83.872C193.674 84.0427 192.607 84.2133 191.583 84.384C190.559 84.64 189.663 84.8107 188.895 84.896C188.212 85.0667 187.743 85.152 187.487 85.152ZM301.08 81.952C299.459 78.88 297.752 75.296 295.96 71.2C294.168 67.104 292.419 62.9227 290.712 58.656C289.091 54.304 287.597 50.2933 286.232 46.624L287.896 43.04L295.96 14.368L289.56 12.576V7.584C290.925 7.328 292.76 7.072 295.064 6.81599C297.453 6.47466 299.672 6.21866 301.72 6.048C303.768 5.79199 304.963 5.66399 305.304 5.66399C305.56 5.66399 306.029 5.96266 306.712 6.56C307.395 7.15733 308.035 7.83999 308.632 8.60799C309.229 9.29066 309.528 9.76 309.528 10.016L296.984 43.04C297.923 45.6 299.032 48.416 300.312 51.488C301.677 54.4747 303.085 57.504 304.536 60.576C305.987 63.648 307.437 66.592 308.888 69.408C310.339 72.1387 311.661 74.528 312.856 76.576L319.64 78.624L318.744 84.64C317.208 84.7253 315.459 84.7253 313.496 84.64C311.619 84.5547 309.784 84.384 307.992 84.128C306.2 83.9573 304.664 83.7013 303.384 83.36C302.104 82.9333 301.336 82.464 301.08 81.952ZM257.176 14.496L249.24 12.576V7.584C250.264 7.41333 251.587 7.24266 253.208 7.072C254.829 6.816 256.493 6.60266 258.2 6.432C259.907 6.176 261.4 6.00533 262.68 5.92C263.96 5.74933 264.728 5.66399 264.984 5.66399C265.24 5.66399 265.709 5.96266 266.392 6.56C267.075 7.15733 267.672 7.83999 268.184 8.60799C268.781 9.29066 269.08 9.76 269.08 10.016V76.448L280.088 78.368L277.656 83.104C276.803 83.1893 275.48 83.36 273.688 83.616C271.981 83.872 270.232 84.0853 268.44 84.256C266.648 84.512 265.069 84.7253 263.704 84.896C262.424 85.0667 261.699 85.152 261.528 85.152C261.272 85.152 260.803 84.8533 260.12 84.256C259.437 83.6587 258.755 83.0187 258.072 82.336C257.475 81.6533 257.176 81.184 257.176 80.928V14.496ZM279.576 6.81599H282.776V71.072C282.776 71.584 282.563 72.5227 282.136 73.888C281.709 75.168 281.027 76.6613 280.088 78.368H276.12V17.824C276.12 16.8853 276.461 15.392 277.144 13.344C277.912 11.296 278.723 9.12 279.576 6.81599ZM276.76 41.248L293.656 40.864V49.312L276.76 47.648V41.248ZM343.777 85.152C343.521 85.152 342.966 84.8107 342.113 84.128C341.26 83.4453 340.449 82.72 339.681 81.952C338.998 81.184 338.657 80.672 338.657 80.416V33.696L334.177 32.288V27.552C334.177 27.552 334.646 27.4667 335.585 27.296C336.609 27.04 337.804 26.784 339.169 26.528C340.534 26.272 341.772 26.0587 342.881 25.888C344.076 25.632 344.801 25.504 345.057 25.504C345.398 25.504 345.953 25.8453 346.721 26.528C347.574 27.1253 348.342 27.808 349.025 28.576C349.793 29.344 350.177 29.9413 350.177 30.368V77.088L354.657 78.368V83.104C354.657 83.104 354.145 83.232 353.121 83.488C352.182 83.6587 351.03 83.872 349.665 84.128C348.3 84.384 347.02 84.5973 345.825 84.768C344.716 85.024 344.033 85.152 343.777 85.152ZM337.377 5.792C337.377 5.62133 337.718 5.28 338.401 4.768C339.169 4.17066 340.022 3.53066 340.961 2.848C341.9 2.16533 342.753 1.61066 343.521 1.184C344.289 0.671995 344.758 0.415993 344.929 0.415993C345.27 0.415993 345.825 0.714661 346.593 1.312C347.361 1.90933 348.129 2.63466 348.897 3.488C349.75 4.34133 350.476 5.152 351.073 5.92C351.67 6.688 351.926 7.28533 351.841 7.712L351.329 10.272C351.244 10.528 350.86 10.9547 350.177 11.552C349.494 12.064 348.684 12.6613 347.745 13.344C346.892 13.9413 346.081 14.496 345.313 15.008C344.545 15.4347 344.033 15.648 343.777 15.648C343.436 15.648 342.881 15.3493 342.113 14.752C341.345 14.0693 340.577 13.3013 339.809 12.448C339.041 11.5947 338.358 10.784 337.761 10.016C337.249 9.248 336.993 8.736 336.993 8.48L337.377 5.792ZM384.934 85.152C384.678 85.152 384.209 84.8533 383.526 84.256C382.843 83.6587 382.161 83.0187 381.478 82.336C380.881 81.6533 380.582 81.184 380.582 80.928V34.208L376.102 32.288V27.552C376.102 27.552 376.614 27.4667 377.638 27.296C378.747 27.04 380.027 26.8267 381.478 26.656C382.929 26.4 384.251 26.1867 385.446 26.016C386.726 25.76 387.494 25.632 387.75 25.632C388.006 25.632 388.475 25.9307 389.158 26.528C389.841 27.04 390.438 27.6373 390.95 28.32C391.547 29.0027 391.846 29.472 391.846 29.728V34.592C392.955 33.7387 394.193 32.8 395.558 31.776C397.009 30.752 398.417 29.7707 399.782 28.832C401.147 27.8933 402.299 27.1253 403.238 26.528C404.262 25.8453 404.859 25.504 405.03 25.504C408.87 25.504 412.155 26.144 414.886 27.424C417.617 28.704 419.707 30.9227 421.158 34.08C422.694 37.2373 423.462 41.5893 423.462 47.136V76.448L427.942 78.368V83.104C427.942 83.104 427.387 83.232 426.278 83.488C425.254 83.6587 423.974 83.872 422.438 84.128C420.987 84.384 419.665 84.5973 418.47 84.768C417.275 85.024 416.55 85.152 416.294 85.152C416.038 85.152 415.526 84.8533 414.758 84.256C414.075 83.6587 413.393 83.0187 412.71 82.336C412.113 81.6533 411.814 81.184 411.814 80.928V47.136C411.814 43.04 411.302 40.1813 410.278 38.56C409.339 36.8533 408.273 35.872 407.078 35.616C405.883 35.2747 404.987 35.104 404.39 35.104C403.878 35.104 402.939 35.36 401.574 35.872C400.294 36.384 398.801 37.024 397.094 37.792C395.473 38.4747 393.851 39.2 392.23 39.968V76.448L396.582 78.368V83.104C396.582 83.104 396.027 83.232 394.918 83.488C393.894 83.6587 392.657 83.872 391.206 84.128C389.755 84.384 388.39 84.5973 387.11 84.768C385.915 85.024 385.19 85.152 384.934 85.152ZM474.615 107.168C472.908 107.168 470.732 107.04 468.087 106.784C465.527 106.528 462.839 106.187 460.023 105.76C457.292 105.333 454.818 104.949 452.599 104.608L449.527 93.6L465.399 80.16C463.266 80.16 461.004 79.1787 458.615 77.216C456.311 75.2533 454.348 72.3947 452.727 68.64C451.106 64.8 450.295 60.1493 450.295 54.688C450.295 52.2133 450.508 49.3547 450.935 46.112C451.447 42.8693 452.13 40.224 452.983 38.176C453.666 37.2373 454.86 36.0853 456.567 34.72C458.274 33.3547 460.151 31.9467 462.199 30.496C464.332 29.0453 466.252 27.8507 467.959 26.912C469.751 25.9733 471.031 25.504 471.799 25.504C472.226 25.504 473.079 25.5893 474.359 25.76C475.724 25.9307 477.303 26.144 479.095 26.4C480.972 26.656 482.85 26.912 484.727 27.168C486.604 27.424 488.268 27.68 489.719 27.936C491.255 28.192 492.322 28.3627 492.919 28.448V86.688C492.919 88.8213 492.236 91.04 490.871 93.344C489.506 95.7333 487.799 97.952 485.751 100C483.703 102.133 481.655 103.84 479.607 105.12C477.559 106.485 475.895 107.168 474.615 107.168ZM478.455 101.28C479.138 101.28 479.692 100.256 480.119 98.208C480.631 96.16 481.015 93.6427 481.271 90.656C481.527 87.7547 481.655 84.896 481.655 82.08V75.68L481.015 75.424C479.65 76.704 477.943 78.2827 475.895 80.16C473.932 81.952 471.884 83.8293 469.751 85.792C467.703 87.84 465.783 89.6747 463.991 91.296C462.199 93.0027 460.834 94.3253 459.895 95.264V96.032C460.578 96.3733 461.73 96.8427 463.351 97.44C464.972 98.0373 466.764 98.6347 468.727 99.232C470.775 99.8293 472.652 100.299 474.359 100.64C476.151 101.067 477.516 101.28 478.455 101.28ZM471.927 74.272C472.268 74.272 472.908 74.016 473.847 73.504C474.871 72.9067 475.938 72.224 477.047 71.456C478.242 70.688 479.223 70.048 479.991 69.536C480.844 68.9387 481.271 68.64 481.271 68.64V35.36C480.076 34.9333 478.498 34.5067 476.535 34.08C474.658 33.6533 472.866 33.312 471.159 33.056C469.452 32.8 468.258 32.8 467.575 33.056C466.722 33.3973 465.954 34.1227 465.271 35.232C464.588 36.3413 464.034 37.8347 463.607 39.712C463.266 41.504 462.967 43.68 462.711 46.24C462.54 48.7147 462.455 51.5733 462.455 54.816C462.455 59.8507 463.052 63.8187 464.247 66.72C465.442 69.536 466.807 71.4987 468.343 72.608C469.879 73.7173 471.074 74.272 471.927 74.272Z" fill="#2F0F5D"/>
</g>
<defs>
<filter id="filter0_d_5_39" x="0.218994" y="0.415985" width="492.7" height="108.752" filterUnits="userSpaceOnUse" color-interpolation-filters="sRGB">
<feFlood flood-opacity="0" result="BackgroundImageFix"/>
<feColorMatrix in="SourceAlpha" type="matrix" values="0 0 0 0 0 0 0 0 0 0 0 0 0 0 0 0 0 0 127 0" result="hardAlpha"/>
<feOffset dy="2"/>
<feComposite in2="hardAlpha" operator="out"/>
<feColorMatrix type="matrix" values="0 0 0 0 0.301961 0 0 0 0 0.866667 0 0 0 0 0.807843 0 0 0 1 0"/>
<feBlend mode="normal" in2="BackgroundImageFix" result="effect1_dropShadow_5_39"/>
<feBlend mode="normal" in="SourceGraphic" in2="effect1_dropShadow_5_39" result="shape"/>
</filter>
</defs>
</svg>
