<svg width="72" height="73" viewBox="0 0 72 73" fill="none" xmlns="http://www.w3.org/2000/svg">
<path fill-rule="evenodd" clip-rule="evenodd" d="M23.0119 5.17468C22.0963 6.78242 21.2701 8.77402 20.4835 11.1229C14.4079 27.5821 5.00989 51.6462 0.473122 63.2001C-1.5872 68.4468 3.43137 73.6992 8.76624 71.8819C20.3908 67.9216 44.4368 59.7852 60.8739 54.6039L60.9238 54.5877C63.2822 53.8027 65.2721 52.9971 66.8693 52.1073C68.45 51.2267 69.864 50.1449 70.8143 48.7047C72.9831 45.4187 71.7812 41.9784 70.347 39.3195C61.3231 22.5906 50.0425 10.8334 35.9557 1.88489C34.6104 1.0304 33.1041 0.304751 31.4768 0.0753521C29.7325 -0.170534 28.0198 0.180498 26.4786 1.1999C25.0356 2.15432 23.924 3.57308 23.0119 5.17468ZM45.8535 26.7459C41.1786 21.7574 36.1318 17.4606 29.8316 12.7117C28.4963 11.7052 27.929 9.89934 28.7566 8.44628C29.3934 7.32808 29.876 6.87894 30.1255 6.71379C30.2769 6.61367 30.3553 6.59354 30.5539 6.62151C30.8689 6.66597 31.457 6.85917 32.4109 7.46509C45.5322 15.8004 56.035 26.7122 64.5287 42.458C65.109 43.5341 65.3127 44.1736 65.366 44.5495C65.4156 44.8994 65.2049 45.2173 64.9419 45.4534C64.6867 45.6826 64.2832 45.9804 63.6518 46.3323C62.3236 47.0721 60.6862 46.497 59.8635 45.2185C54.9727 37.618 50.6415 31.8551 45.8535 26.7459ZM41.0296 31.2664C44.4838 34.9521 47.728 39.0517 51.2396 44.1744C53.0942 46.8797 51.757 50.5717 48.6377 51.5858C33.5401 56.494 16.0149 62.4283 6.63436 65.624L6.63179 65.6248C6.63008 65.6253 6.62821 65.6248 6.62694 65.6236C6.62558 65.6222 6.62515 65.6202 6.62584 65.6184L6.62662 65.6164C10.2828 56.3052 17.1158 38.8191 22.8246 23.7287C24.0049 20.6088 27.8547 19.4746 30.4523 21.5672C34.4561 24.7925 37.849 27.8725 41.0296 31.2664ZM29.0248 39.6652C32.676 39.6652 35.6357 36.7055 35.6357 33.0543C35.6357 29.4033 32.676 26.4435 29.0248 26.4435C25.3737 26.4435 22.4139 29.4033 22.4139 33.0543C22.4139 36.7055 25.3737 39.6652 29.0248 39.6652ZM29.0248 49.5816C29.0248 53.2328 26.065 56.1925 22.4139 56.1925C18.7628 56.1925 15.803 53.2328 15.803 49.5816C15.803 45.9304 18.7628 42.9707 22.4139 42.9707C26.065 42.9707 29.0248 45.9304 29.0248 49.5816ZM38.9412 52.8871C42.5924 52.8871 45.5521 49.9274 45.5521 46.2761C45.5521 42.6249 42.5924 39.6652 38.9412 39.6652C35.29 39.6652 32.3303 42.6249 32.3303 46.2761C32.3303 49.9274 35.29 52.8871 38.9412 52.8871Z" fill="black"/>
</svg>
