<svg width="76" height="76" viewBox="0 0 76 76" fill="none" xmlns="http://www.w3.org/2000/svg">
<path d="M11.5282 17.6585C11.1178 17.6574 10.7115 17.5753 10.3328 17.417C9.95406 17.2588 9.61024 17.0274 9.321 16.7361C9.03177 16.4448 8.8028 16.0994 8.64718 15.7195C8.49156 15.3397 8.41236 14.9329 8.41409 14.5224V5.13024C8.41215 4.30224 8.73911 3.50736 9.32308 2.92037C9.90705 2.33338 10.7002 2.00233 11.5282 2C12.3562 2.00233 13.1494 2.33338 13.7334 2.92037C14.3174 3.50736 14.6443 4.30224 14.6424 5.13024V14.5224C14.6441 14.9329 14.5649 15.3397 14.4093 15.7195C14.2537 16.0994 14.0247 16.4448 13.7355 16.7361C13.4462 17.0274 13.1024 17.2588 12.7237 17.417C12.3449 17.5753 11.9387 17.6574 11.5282 17.6585Z" stroke="black" stroke-width="3" stroke-linecap="round" stroke-linejoin="round"/>
<path d="M56.6622 5.13024H19.3378C16.7446 5.13024 14.6425 7.23243 14.6425 9.82561C14.6425 12.4188 16.7446 14.521 19.3378 14.521H56.6622C59.2554 14.521 61.3576 12.4188 61.3576 9.82561C61.3576 7.23243 59.2554 5.13024 56.6622 5.13024Z" stroke="black" stroke-width="3" stroke-linecap="round" stroke-linejoin="round"/>
<path d="M56.3576 14.5224H19.6425C16.881 14.5224 14.6425 16.761 14.6425 19.5224V56.479C14.6425 59.2404 16.881 61.479 19.6425 61.479H56.3576C59.119 61.479 61.3576 59.2404 61.3576 56.479V19.5224C61.3576 16.761 59.119 14.5224 56.3576 14.5224Z" stroke="black" stroke-width="3" stroke-linecap="round" stroke-linejoin="round"/>
<path d="M5.56195 6.25561V6.25561C7.13718 6.25561 8.41415 7.53258 8.41415 9.1078V10.5449C8.41415 12.1201 7.13718 13.3971 5.56195 13.3971V13.3971C5.09419 13.3971 4.63101 13.3049 4.19885 13.1259C3.7667 12.9469 3.37403 12.6846 3.04327 12.3538C2.37528 11.6858 2 10.7798 2 9.83512V9.81609C2.00039 8.87166 2.37584 7.96604 3.04379 7.29836C3.71174 6.63068 4.61752 6.25561 5.56195 6.25561Z" stroke="black" stroke-width="3" stroke-linecap="round" stroke-linejoin="round"/>
<path d="M64.4717 17.6585C65.2997 17.6562 66.0929 17.3252 66.6769 16.7382C67.2608 16.1512 67.5878 15.3563 67.5859 14.5283V5.13024C67.5878 4.30224 67.2608 3.50736 66.6769 2.92037C66.0929 2.33338 65.2997 2.00233 64.4717 2C63.6437 2.00233 62.8505 2.33338 62.2666 2.92037C61.6826 3.50736 61.3556 4.30224 61.3576 5.13024V14.5224C61.3558 14.9329 61.435 15.3397 61.5907 15.7195C61.7463 16.0994 61.9753 16.4448 62.2645 16.7361C62.5537 17.0274 62.8975 17.2588 63.2763 17.417C63.655 17.5753 64.0612 17.6574 64.4717 17.6585Z" stroke="black" stroke-width="3" stroke-linecap="round" stroke-linejoin="round"/>
<path d="M70.438 13.3978C70.438 13.3974 70.4377 13.3971 70.4373 13.3971H69.012C68.2243 13.3971 67.5859 12.7586 67.5859 11.971V9.1078C67.5859 7.53258 68.8628 6.25561 70.438 6.25561V6.25561C71.3827 6.25561 72.2887 6.63089 72.9567 7.29888C73.6247 7.96688 74 8.87287 74 9.81756V9.83659C74 10.7813 73.6247 11.6873 72.9567 12.3553C72.2889 13.0231 71.3832 13.3983 70.4388 13.3985C70.4384 13.3985 70.438 13.3982 70.438 13.3978V13.3978Z" stroke="black" stroke-width="3" stroke-linecap="round" stroke-linejoin="round"/>
<path d="M11.5282 58.3415C10.7002 58.3438 9.90705 58.6748 9.32308 59.2618C8.73911 59.8488 8.41215 60.6437 8.41409 61.4717V70.8639C8.41236 71.2744 8.49156 71.6812 8.64718 72.061C8.8028 72.4409 9.03177 72.7863 9.321 73.0776C9.61024 73.3688 9.95406 73.6002 10.3328 73.7585C10.7115 73.9168 11.1178 73.9989 11.5282 74C12.3562 73.9977 13.1494 73.6666 13.7334 73.0796C14.3174 72.4926 14.6443 71.6978 14.6424 70.8698V61.4776C14.6441 61.0671 14.5649 60.6603 14.4093 60.2805C14.2537 59.9006 14.0247 59.5552 13.7355 59.2639C13.4462 58.9726 13.1024 58.7412 12.7237 58.583C12.3449 58.4247 11.9387 58.3426 11.5282 58.3415Z" stroke="black" stroke-width="3" stroke-linecap="round" stroke-linejoin="round"/>
<path d="M56.6622 61.4776H19.3378C16.7446 61.4776 14.6425 63.5797 14.6425 66.1729C14.6425 68.7661 16.7446 70.8683 19.3378 70.8683H56.6622C59.2554 70.8683 61.3576 68.7661 61.3576 66.1729C61.3576 63.5797 59.2554 61.4776 56.6622 61.4776Z" stroke="black" stroke-width="3" stroke-linecap="round" stroke-linejoin="round"/>
<path d="M5.56195 62.6029V62.6029C7.13718 62.6029 8.41415 63.8799 8.41415 65.4551V66.8922C8.41415 68.4674 7.13718 69.7444 5.56195 69.7444V69.7444C5.09419 69.7444 4.63101 69.6523 4.19885 69.4733C3.7667 69.2943 3.37403 69.0319 3.04327 68.7011C2.71251 68.3704 2.45014 67.9777 2.27114 67.5455C2.09213 67.1134 2 66.6502 2 66.1824V66.1634C2.00039 65.219 2.37584 64.3134 3.04379 63.6457C3.71174 62.978 4.61752 62.6029 5.56195 62.6029Z" stroke="black" stroke-width="3" stroke-linecap="round" stroke-linejoin="round"/>
<path d="M64.4717 58.3415C65.2997 58.3438 66.0929 58.6748 66.6769 59.2618C67.2608 59.8488 67.5878 60.6437 67.5859 61.4717V70.8639C67.5876 71.2744 67.5084 71.6812 67.3528 72.061C67.1972 72.4409 66.9682 72.7863 66.679 73.0776C66.3897 73.3688 66.0459 73.6002 65.6672 73.7585C65.2884 73.9168 64.8822 73.9989 64.4717 74C63.6437 73.9977 62.8505 73.6666 62.2666 73.0796C61.6826 72.4926 61.3556 71.6978 61.3576 70.8698V61.4776C61.3558 61.0671 61.435 60.6603 61.5907 60.2805C61.7463 59.9006 61.9753 59.5552 62.2645 59.2639C62.5537 58.9726 62.8975 58.7412 63.2763 58.583C63.655 58.4247 64.0612 58.3426 64.4717 58.3415Z" stroke="black" stroke-width="3" stroke-linecap="round" stroke-linejoin="round"/>
<path d="M70.438 69.7451C70.438 69.7447 70.4377 69.7444 70.4373 69.7444H69.012C68.2243 69.7444 67.5859 69.1059 67.5859 68.3183V65.4551C67.5859 63.8799 68.8628 62.6029 70.438 62.6029V62.6029C71.3827 62.6029 72.2887 62.9782 72.9567 63.6462C73.6247 64.3142 74 65.2202 74 66.1649V66.1839C74 67.1286 73.6247 68.0346 72.9567 68.7026C72.2889 69.3704 71.3832 69.7457 70.4388 69.7459C70.4384 69.7459 70.438 69.7455 70.438 69.7451V69.7451Z" stroke="black" stroke-width="3" stroke-linecap="round" stroke-linejoin="round"/>
<path d="M21.5234 21.0405H38" stroke="black" stroke-width="3" stroke-linecap="round" stroke-linejoin="round"/>
<path d="M21.5234 27.8249H54.8673" stroke="black" stroke-width="3" stroke-linecap="round" stroke-linejoin="round"/>
<path d="M21.5234 34.6078H54.8673" stroke="black" stroke-width="3" stroke-linecap="round" stroke-linejoin="round"/>
<path d="M21.5234 41.3922H54.8673" stroke="black" stroke-width="3" stroke-linecap="round" stroke-linejoin="round"/>
<path d="M21.5234 48.1751H54.8673" stroke="black" stroke-width="3" stroke-linecap="round" stroke-linejoin="round"/>
<path d="M38 54.9595H54.8673" stroke="black" stroke-width="3" stroke-linecap="round" stroke-linejoin="round"/>
</svg>
