<svg width="84" height="84" viewBox="0 0 84 84" fill="none" xmlns="http://www.w3.org/2000/svg">
<path fill-rule="evenodd" clip-rule="evenodd" d="M72 7.38457V41.6127C72 50.0755 65.434 57.4378 57.1969 57.2273C47.7595 56.9836 40.4963 47.3983 44.0434 37.1373C45.9985 31.4806 51.4719 27.7849 57.3155 27.6926C60.1043 27.652 61.1142 28.3752 64.8123 29.6675V18.4614C64.8123 16.4233 63.2023 14.7691 61.2185 14.7691H32.4676C30.4838 14.7691 28.8738 16.4233 28.8738 18.4614V56.3704C28.8738 64.8738 22.2467 72.2625 13.9737 71.9929C6.05284 71.7345 -0.308297 64.8996 0.0115559 56.6288C0.324219 48.6571 7.16335 42.6314 14.9297 42.4468C18.599 42.3581 19.2674 42.9347 21.6861 44.4375V7.38457C21.6861 3.30455 24.9062 0 28.8738 0H64.8123C68.7835 0 72 3.30455 72 7.38457Z" fill="black"/>
</svg>
