<svg width="72" height="72" viewBox="0 0 72 72" fill="none" xmlns="http://www.w3.org/2000/svg">
<path d="M36 0C16.1177 0 0 16.1179 0 36C1.89624 83.7534 70.1111 83.7398 72 35.9998C72 16.1179 55.8823 0 36 0ZM38.2511 13.6631C38.2511 11.9903 39.0875 10.4284 40.4798 9.50132L43.6639 7.38108C44.938 6.53261 46.5403 6.29209 47.955 6.87702C52.6168 8.8046 56.7502 11.8211 60.0077 15.6731C60.9917 16.8367 61.2538 18.4275 60.8425 19.8949L59.8227 23.5334C59.3694 25.1509 58.134 26.4327 56.5343 26.9454L49.7901 29.1071C48.2634 29.5964 46.5947 29.324 45.3029 28.3745L40.29 24.6901C39.0081 23.748 38.2511 22.2521 38.2511 20.6613V13.6631ZM24.0456 6.8768C25.4601 6.292 27.0622 6.53253 28.3363 7.38087L31.5223 9.50224C32.9146 10.4293 33.7511 11.9913 33.7511 13.6641V20.6603C33.7511 22.2512 32.9941 23.7471 31.7122 24.6892L26.698 28.3745C25.4061 29.3239 23.7373 29.5963 22.2106 29.1069L15.4657 26.9448C13.866 26.432 12.6308 25.1502 12.1774 23.5327L11.1578 19.8944C10.7466 18.4271 11.0086 16.8364 11.9926 15.6728C15.25 11.8207 19.3836 8.80415 24.0456 6.8768ZM12.9961 54.6492C11.4807 54.5872 10.0544 53.8533 9.25082 52.567C6.57336 48.2811 4.97453 43.4089 4.59189 38.3701C4.47634 36.8484 5.19989 35.4047 6.39679 34.458L9.43032 32.0586C10.7368 31.0252 12.4722 30.7103 14.0585 31.2188L20.8009 33.3802C22.3373 33.8727 23.5416 35.0764 24.035 36.6125L25.9659 42.6239C26.457 44.153 26.1837 45.8251 25.2311 47.1183L21.0639 52.7757C20.0787 54.1131 18.4936 54.874 16.8338 54.8061L12.9961 54.6492ZM46.6063 63.6982C46.0837 65.1079 44.9604 66.2326 43.5008 66.5933C38.6803 67.7845 33.319 67.7843 28.4985 66.5931C27.0389 66.2324 25.9155 65.1077 25.3929 63.6979L24.0596 60.1016C23.4741 58.5223 23.7231 56.7543 24.722 55.3982L28.8927 49.736C29.8351 48.4566 31.3295 47.7014 32.9185 47.7014H39.0818C40.671 47.7014 42.1656 48.4568 43.1079 49.7365L47.2776 55.3986C48.2763 56.7547 48.5252 58.5225 47.9397 60.1016L46.6063 63.6982ZM62.7487 52.5674C61.9451 53.8536 60.519 54.5874 59.0037 54.6494L55.1661 54.8064C53.5061 54.8743 51.9209 54.1133 50.9357 52.7756L46.7693 47.1184C45.8169 45.8252 45.5437 44.1533 46.0348 42.6242L47.966 36.6124C48.4594 35.0762 49.6638 33.8725 51.2003 33.3801L57.942 31.2193C59.5282 30.7109 61.2634 31.0258 62.5699 32.0592L65.6032 34.4584C66.8001 35.4051 67.5236 36.8488 67.4081 38.3704C67.0254 43.4093 65.4264 48.2815 62.7487 52.5674Z" fill="black"/>
</svg>
