<svg width="50" height="54" viewBox="0 0 50 54" fill="none" xmlns="http://www.w3.org/2000/svg">
<circle cx="24" cy="30" r="22.5" fill="#D3BAF8" stroke="black" stroke-width="3"/>
<path fill-rule="evenodd" clip-rule="evenodd" d="M24.1071 44.2404C23.5647 44.2404 23.0445 44.4559 22.6609 44.8395C22.2774 45.2231 22.0619 45.7433 22.0618 46.2857C22.0619 46.8281 22.2774 47.3483 22.6609 47.7319C23.0445 48.1155 23.5647 48.331 24.1071 48.331C24.6496 48.331 25.1698 48.1155 25.5533 47.7319C25.9369 47.3483 26.1524 46.8281 26.1525 46.2857C26.1524 45.7433 25.9369 45.2231 25.5533 44.8395C25.1698 44.4559 24.6496 44.2404 24.1071 44.2404Z" fill="black"/>
<path fill-rule="evenodd" clip-rule="evenodd" d="M35.5128 39.4604C35.0214 39.4942 34.5586 39.7041 34.2095 40.0518C33.8259 40.4354 33.6104 40.9557 33.6104 41.4982C33.6104 42.0407 33.8259 42.561 34.2095 42.9446C34.5932 43.3282 35.1135 43.5438 35.656 43.5438C36.1985 43.5438 36.7188 43.3282 37.1024 42.9446C37.486 42.561 37.7015 42.0407 37.7015 41.4982C37.7015 40.9557 37.486 40.4354 37.1024 40.0518C36.8952 39.8453 36.646 39.6856 36.3718 39.5836C36.0976 39.4816 35.8047 39.4396 35.5128 39.4604Z" fill="black"/>
<path fill-rule="evenodd" clip-rule="evenodd" d="M12.4114 39.4603C11.9213 39.495 11.46 39.7049 11.1119 40.0517C10.7283 40.4353 10.5128 40.9556 10.5128 41.4982C10.5128 42.0407 10.7283 42.561 11.1119 42.9446C11.4955 43.3282 12.0158 43.5437 12.5583 43.5437C13.1008 43.5437 13.6211 43.3282 14.0047 42.9446C14.3884 42.561 14.6039 42.0407 14.6039 41.4982C14.6039 40.9556 14.3884 40.4353 14.0047 40.0517C13.7971 39.8447 13.5473 39.6847 13.2724 39.5827C12.9975 39.4807 12.7039 39.439 12.4114 39.4603Z" fill="black"/>
<path fill-rule="evenodd" clip-rule="evenodd" d="M40.4397 27.904C39.8973 27.9041 39.3771 28.1196 38.9935 28.5031C38.6099 28.8867 38.3944 29.4069 38.3944 29.9493C38.3944 30.4918 38.6099 31.012 38.9935 31.3955C39.3771 31.7791 39.8973 31.9946 40.4397 31.9947C40.7086 31.9951 40.975 31.9426 41.2236 31.84C41.4721 31.7374 41.698 31.5869 41.8884 31.3969C42.0787 31.2069 42.2297 30.9813 42.3327 30.7329C42.4358 30.4845 42.4888 30.2182 42.4888 29.9493C42.4888 29.6804 42.4358 29.4142 42.3327 29.1658C42.2297 28.9174 42.0787 28.6918 41.8884 28.5018C41.698 28.3118 41.4721 28.1612 41.2236 28.0587C40.975 27.9561 40.7086 27.9035 40.4397 27.904Z" fill="black"/>
<path fill-rule="evenodd" clip-rule="evenodd" d="M7.77454 27.904C7.50563 27.9035 7.23927 27.9561 6.9907 28.0587C6.74212 28.1612 6.51621 28.3118 6.32589 28.5018C6.13557 28.6918 5.98458 28.9174 5.88154 29.1658C5.77851 29.4142 5.72546 29.6804 5.72543 29.9493C5.72546 30.2182 5.77851 30.4845 5.88154 30.7329C5.98458 30.9813 6.13557 31.2069 6.32589 31.3969C6.51621 31.5869 6.74212 31.7374 6.9907 31.84C7.23927 31.9426 7.50563 31.9951 7.77454 31.9947C8.31698 31.9946 8.83719 31.7791 9.22075 31.3955C9.60432 31.012 9.81982 30.4918 9.81988 29.9493C9.81982 29.4069 9.60432 28.8867 9.22075 28.5031C8.83719 28.1196 8.31698 27.9041 7.77454 27.904Z" fill="black"/>
<path fill-rule="evenodd" clip-rule="evenodd" d="M35.5128 16.3589C35.0209 16.3937 34.558 16.6051 34.2095 16.9541C33.8259 17.3377 33.6104 17.858 33.6104 18.4005C33.6104 18.943 33.8259 19.4633 34.2095 19.847C34.5932 20.2306 35.1135 20.4461 35.656 20.4461C36.1985 20.4461 36.7188 20.2306 37.1024 19.847C37.486 19.4633 37.7015 18.943 37.7015 18.4005C37.7015 17.858 37.486 17.3377 37.1024 16.9541C36.8955 16.7469 36.6465 16.5866 36.3723 16.4839C36.098 16.3812 35.805 16.3386 35.5128 16.3589Z" fill="black"/>
<path fill-rule="evenodd" clip-rule="evenodd" d="M12.4114 16.359C11.9208 16.3946 11.4594 16.6059 11.1119 16.9541C10.7283 17.3377 10.5128 17.858 10.5128 18.4005C10.5128 18.943 10.7283 19.4633 11.1119 19.847C11.4955 20.2306 12.0158 20.4461 12.5583 20.4461C13.1008 20.4461 13.6211 20.2306 14.0047 19.847C14.3884 19.4633 14.6039 18.943 14.6039 18.4005C14.6039 17.858 14.3884 17.3377 14.0047 16.9541C13.7974 16.7464 13.5478 16.5858 13.2729 16.4831C12.9979 16.3804 12.7041 16.3381 12.4114 16.359Z" fill="black"/>
<path fill-rule="evenodd" clip-rule="evenodd" d="M24.1071 11.5714C23.5647 11.5715 23.0445 11.787 22.6609 12.1706C22.2774 12.5541 22.0619 13.0743 22.0618 13.6168C22.0619 14.1592 22.2774 14.6794 22.6609 15.0629C23.0445 15.4465 23.5647 15.662 24.1071 15.6621C24.6496 15.662 25.1698 15.4465 25.5533 15.0629C25.9369 14.6794 26.1524 14.1592 26.1525 13.6168C26.1524 13.0743 25.9369 12.5541 25.5533 12.1706C25.1698 11.787 24.6496 11.5715 24.1071 11.5714Z" fill="black"/>
<path fill-rule="evenodd" clip-rule="evenodd" d="M20.25 0C19.7385 0 19.248 0.203157 18.8863 0.564835C18.5246 0.926512 18.3214 1.41708 18.3214 1.92857C18.3214 2.44006 18.5246 2.93057 18.8863 3.29225C19.248 3.65393 19.7385 3.85714 20.25 3.85714H22.1786V5.86858C9.78657 6.85568 0 17.2517 0 29.8929C0 43.184 10.816 54 24.1071 54C37.3983 54 48.2143 43.184 48.2143 29.8929C48.2143 25.0798 46.7902 20.5938 44.3496 16.826C44.4252 16.7735 44.497 16.7156 44.5643 16.6528L48.655 12.5621C49.0165 12.2004 49.2196 11.71 49.2196 11.1986C49.2196 10.6872 49.0165 10.1967 48.655 9.83502L43.2008 4.38078C42.8391 4.01924 42.3486 3.81618 41.8372 3.81618C41.3258 3.81618 40.8353 4.01924 40.4736 4.38078L36.3829 8.47146C36.2439 8.61586 36.1283 8.78106 36.0402 8.96108C33.0461 7.24731 29.6525 6.15669 26.0357 5.86858V3.85714H27.9643C28.4758 3.85714 28.9663 3.65393 29.328 3.29225C29.6897 2.93057 29.8929 2.44006 29.8929 1.92857C29.8929 1.41708 29.6897 0.926512 29.328 0.564835C28.9663 0.203157 28.4758 0 27.9643 0H20.25ZM41.8372 8.4714L44.5643 11.1985L43.2008 12.5621L40.4736 9.83496L41.8372 8.4714ZM24.1071 9.64286C35.3137 9.64286 44.3571 18.6863 44.3571 29.8929C44.3571 41.0995 35.3137 50.1429 24.1071 50.1429C12.9006 50.1429 3.85714 41.0995 3.85714 29.8929C3.85714 18.6863 12.9006 9.64286 24.1071 9.64286Z" fill="black"/>
</svg>
